<?xml version="1.0" encoding="UTF-8"?>
<svg version="1.1" xmlns="http://www.w3.org/2000/svg" width="875" height="875">
<path d="M0 0 C44.73935814 -1.25437453 82.72951279 18.16969081 120.15576172 40.29199219 C125.46162652 43.41387518 130.79764513 46.48323936 136.1328125 49.5546875 C138.31771191 50.81379589 140.50260773 52.07291049 142.6875 53.33203125 C143.77256836 53.95706543 144.85763672 54.58209961 145.97558594 55.22607422 C151.40441192 58.35398898 156.83100531 61.48577198 162.2578125 64.6171875 C164.42446833 65.86720629 166.591135 67.11720628 168.7578125 68.3671875 C266.2578125 124.6171875 266.2578125 124.6171875 363.7578125 180.8671875 C364.8310376 181.48634033 365.9042627 182.10549316 367.01000977 182.7434082 C369.16940645 183.9892452 371.32874919 185.23517568 373.48803711 186.48120117 C379.01548847 189.67067703 384.54396371 192.85835635 390.07421875 196.04296875 C395.51323209 199.17529262 400.94826867 202.31442716 406.38134766 205.45703125 C408.97582674 206.95443897 411.57501993 208.44323042 414.17578125 209.9296875 C423.27333239 215.15910651 431.88401288 220.79054528 440.2578125 227.1171875 C441.14210938 227.77589844 442.02640625 228.43460938 442.9375 229.11328125 C463.45689717 245.11092677 479.43671065 265.03508588 491.2578125 288.1171875 C491.73275146 289.03830322 491.73275146 289.03830322 492.21728516 289.97802734 C505.04040831 315.18902404 510.71584783 342.71028824 510.5703125 370.8671875 C510.56757828 371.97587692 510.56757828 371.97587692 510.56478882 373.10696411 C510.5156926 384.98329041 509.87050305 396.50157972 507.2578125 408.1171875 C507.08088867 408.9107666 506.90396484 409.7043457 506.72167969 410.52197266 C495.64353533 458.68989741 466.55574387 499.1020605 424.74609375 525.3515625 C420.95630588 527.6752479 417.10913678 529.89751874 413.2578125 532.1171875 C411.32288081 533.23821935 409.38798813 534.35931856 407.453125 535.48046875 C401.86888511 538.71106665 396.27776859 541.92960089 390.68505859 545.14550781 C385.20625453 548.29743982 379.73220137 551.45759547 374.2578125 554.6171875 C372.09117024 555.8672298 369.92450353 557.11722974 367.7578125 558.3671875 C366.1490625 559.2953125 366.1490625 559.2953125 364.5078125 560.2421875 C354.75781249 565.86718751 354.75781249 565.86718751 351.50732422 567.74243164 C349.34224179 568.99154268 347.17720268 570.24072879 345.01220703 571.48999023 C339.57165544 574.62921059 334.13034034 577.76709313 328.6875 580.90234375 C318.23575051 586.92466079 307.79481702 592.96388087 297.3828125 599.0546875 C288.11217319 604.47677449 278.79844551 609.82042762 269.46734619 615.13742065 C261.37073321 619.75202827 253.29997501 624.40812175 245.2578125 629.1171875 C236.6626396 634.1490854 228.03469028 639.12107874 219.3828125 644.0546875 C207.06039667 651.08160526 194.76642797 658.15661287 182.484375 665.25390625 C179.22257243 667.137538 175.95919406 669.01841071 172.6953125 670.8984375 C162.200423 676.94466082 151.71553247 683.00686526 141.2578125 689.1171875 C132.6250788 694.16080549 123.97896175 699.18072796 115.3203125 704.1796875 C114.24845703 704.79908203 113.17660156 705.41847656 112.07226562 706.05664062 C109.13741367 707.74932529 106.19875115 709.43510462 103.2578125 711.1171875 C101.93112549 711.88071533 101.93112549 711.88071533 100.57763672 712.65966797 C99.76955566 713.11873535 98.96147461 713.57780273 98.12890625 714.05078125 C97.42564209 714.45224365 96.72237793 714.85370605 95.99780273 715.26733398 C94.2578125 716.1171875 94.2578125 716.1171875 92.2578125 716.1171875 C93.85946242 708.22574155 96.15346463 700.60268392 98.52734375 692.9140625 C98.96037149 691.50227981 99.39307138 690.09039653 99.82546997 688.67842102 C100.75180499 685.65570875 101.68022288 682.63364751 102.61032104 679.61209106 C104.09141905 674.8003169 105.56779816 669.9871034 107.04321289 665.17358398 C107.54880811 663.52421424 108.05440812 661.87484596 108.56001282 660.22547913 C108.8123147 659.40240831 109.06461658 658.5793375 109.32456398 657.73132515 C110.09857441 655.20692162 110.87304329 652.68265914 111.64762878 650.15843201 C115.51993161 637.53757084 119.37782886 624.912373 123.20996094 612.2792511 C125.40827899 605.03458556 127.62065181 597.79487095 129.86621094 590.56469727 C130.73576151 587.7572995 131.60313225 584.94923781 132.46875 582.140625 C132.67905853 581.45868765 132.88936707 580.7767503 133.10604858 580.07414818 C136.01543126 570.6039958 138.57628675 561.09700942 140.921875 551.46875 C149.68625442 516.33010094 149.68625442 516.33010094 161.96118164 508.86230469 C166.67605047 506.30359112 171.59632718 504.37922622 176.63427734 502.54248047 C182.59483249 500.19793654 187.91632724 496.86160958 193.3828125 493.5546875 C195.52326073 492.31160541 197.66649306 491.07330471 199.8125 489.83984375 C200.87178711 489.2277002 201.93107422 488.61555664 203.02246094 487.98486328 C206.31005179 486.08703125 209.60000106 484.19334879 212.890625 482.30078125 C218.30570049 479.18568929 223.71636095 476.06309165 229.12255859 472.93261719 C231.21062391 471.723549 233.2994904 470.51586338 235.38916016 469.30957031 C238.37039447 467.58585935 241.34606771 465.85292469 244.3203125 464.1171875 C245.63080566 463.36187744 245.63080566 463.36187744 246.96777344 462.59130859 C272.20986695 447.78254833 289.91382051 425.53223717 297.5078125 397.2421875 C304.46269896 370.3917652 300.34850004 341.8260012 286.8203125 317.7421875 C283.6529521 312.55355106 280.1653965 307.76907321 276.2578125 303.1171875 C275.64164063 302.36695313 275.02546875 301.61671875 274.390625 300.84375 C259.48189989 283.30055137 237.116345 273.40570726 217.4140625 262.1953125 C210.63905238 258.34032329 203.88291849 254.45313349 197.1328125 250.5546875 C196.07360596 249.94367188 195.01439941 249.33265625 193.9230957 248.703125 C188.44926431 245.5440399 182.98105967 242.37562251 177.51953125 239.1953125 C143.09495608 219.17341616 112.28157674 203.94213 71.54443359 214.46679688 C45.44480943 221.89039273 22.53764627 239.68320244 9.22802734 263.34179688 C3.62369819 273.59712693 -0.18429362 283.70292986 -2.7421875 295.1171875 C-2.92071384 295.89860265 -3.09924019 296.6800178 -3.28317642 297.48511219 C-3.75922255 300.21487039 -3.84436432 302.70334376 -3.81292725 305.47257996 C-3.80392899 306.53359924 -3.79493073 307.59461853 -3.78565979 308.68778992 C-3.77099167 309.84164688 -3.75632355 310.99550385 -3.74121094 312.18432617 C-3.71845126 314.7196558 -3.6962398 317.2549904 -3.67449951 319.79032898 C-3.66493658 320.78904213 -3.66493658 320.78904213 -3.65518045 321.8079313 C-3.60889682 326.69994542 -3.58367779 331.5917513 -3.57110596 336.48396301 C-3.56927142 337.19552793 -3.56743688 337.90709285 -3.56554675 338.64022034 C-3.55845509 341.57410038 -3.55215126 344.50798131 -3.54644918 347.44186437 C-3.5296431 355.75429251 -3.4918657 364.06534555 -3.38916016 372.37719727 C-3.30759055 378.98930704 -3.27230827 385.59985608 -3.29067445 392.21246892 C-3.29868183 395.70731839 -3.28397044 399.19861821 -3.2130661 402.69283104 C-2.77069691 425.60838699 -2.77069691 425.60838699 -7.51647949 430.93716431 C-10.60917573 433.62598997 -14.06107855 435.33290296 -17.7421875 437.1171875 C-19.88706049 438.6158638 -21.8900408 440.22311373 -23.9296875 441.8671875 C-24.51935303 442.3202124 -25.10901855 442.7732373 -25.71655273 443.23999023 C-30.3223143 446.78543259 -34.90733165 450.35727582 -39.4921875 453.9296875 C-47.5597383 460.21413691 -55.67536028 466.43364688 -63.80517578 472.63720703 C-68.79503075 476.44972289 -73.76689118 480.2857093 -78.7421875 484.1171875 C-80.90863401 485.78414042 -83.07541247 487.45066163 -85.2421875 489.1171875 C-86.32552688 489.95051297 -87.40886022 490.7838463 -88.4921875 491.6171875 C-107.9921875 506.6171875 -107.9921875 506.6171875 -109.6159668 507.86621094 C-110.70341751 508.7027366 -111.79081957 509.53932553 -112.87817383 510.37597656 C-115.52312537 512.41098038 -118.16899862 514.44475283 -120.81640625 516.4765625 C-127.0600632 521.27093898 -133.28249693 526.09138917 -139.4921875 530.9296875 C-148.20163627 537.71232429 -156.95417151 544.43670475 -165.7421875 551.1171875 C-166.36512695 551.5915625 -166.98806641 552.0659375 -167.62988281 552.5546875 C-169.33179305 553.8492794 -171.03634128 555.14028833 -172.7421875 556.4296875 C-174.1653125 557.50669922 -174.1653125 557.50669922 -175.6171875 558.60546875 C-177.7421875 560.1171875 -177.7421875 560.1171875 -178.7421875 560.1171875 C-178.83387741 509.67846594 -178.90429433 459.23975284 -178.94644882 408.80096423 C-178.95145124 402.83711729 -178.95662857 396.87327052 -178.96191406 390.90942383 C-178.9629633 389.72220167 -178.96401255 388.53497952 -178.96509358 387.31178094 C-178.98246695 368.12494302 -179.01398763 348.93815337 -179.05079868 329.75134402 C-179.08829368 310.04268969 -179.1104414 290.33406052 -179.11854148 270.62537199 C-179.12401154 258.47825027 -179.14124592 246.33126502 -179.17385337 234.18418533 C-179.19510707 225.83809945 -179.20136315 217.49208342 -179.19619301 209.14597248 C-179.19364802 204.3411225 -179.19736191 199.53650985 -179.2190094 194.7317028 C-179.30119866 175.52992219 -179.33856033 156.90057542 -174.7421875 138.1171875 C-174.55251294 137.3378362 -174.36283837 136.5584849 -174.1674161 135.75551689 C-168.56041444 113.20785012 -158.02573343 91.42869339 -143.7421875 73.1171875 C-143.11828125 72.30121094 -142.494375 71.48523438 -141.8515625 70.64453125 C-111.55493449 31.78849004 -68.27020135 8.30316167 -19.7421875 1.1171875 C-13.15711474 0.34166759 -6.61431419 0.282663 0 0 Z " fill="#56575C" transform="translate(271.7421875,78.8828125)"/>
<path d="M0 0 C2.10542804 1.23704845 4.210898 2.47402556 6.31640625 3.7109375 C7.38133301 4.33838867 8.44625977 4.96583984 9.54345703 5.61230469 C14.66759469 8.62889007 19.80197511 11.62785351 24.9375 14.625 C25.93499268 15.20773682 26.93248535 15.79047363 27.96020508 16.39086914 C33.49830954 19.62139243 39.05259849 22.82052848 44.62890625 25.98461914 C49.01197929 28.47351873 53.38360276 30.98197355 57.75 33.5 C58.79994141 34.10521484 59.84988281 34.71042969 60.93164062 35.33398438 C64.27528495 37.27122177 67.60749483 39.22692538 70.9375 41.1875 C71.96480225 41.78103271 72.99210449 42.37456543 74.05053711 42.98608398 C89.30693429 52.03885193 99.27555423 63.10739629 103.75 80.5 C106.55369838 94.88984269 104.10837114 109.37680385 96.265625 121.86328125 C88.87427649 131.97876079 79.75953826 138.29490589 69 144.375 C67.24993101 145.37405513 65.49986705 146.37311921 63.75012207 147.3727417 C61.94183576 148.40488121 60.13215381 149.43453968 58.32226562 150.46386719 C52.78343774 153.61697479 47.26802813 156.81068485 41.75 160 C39.59255929 161.24498468 37.43500675 162.4897756 35.27734375 163.734375 C34.20597168 164.35248047 33.13459961 164.97058594 32.03076172 165.60742188 C28.68862144 167.53540755 25.34628515 169.46305304 22.00390625 171.390625 C20.33932373 172.35077515 20.33932373 172.35077515 18.64111328 173.33032227 C16.4405069 174.5994559 14.23966453 175.86818044 12.03857422 177.13647461 C7.12347948 179.96991306 2.21254105 182.80968499 -2.68359375 185.67578125 C-21.30059166 196.56673402 -37.30492891 205.16233773 -59.5 200.4375 C-73.45886869 196.37089191 -85.3812653 186.8326394 -92.78125 174.40625 C-98.17310713 163.7372561 -99.39926132 153.50246662 -99.41113281 141.73413086 C-99.41609772 140.55444733 -99.42106262 139.37476379 -99.42617798 138.15933228 C-99.4382505 134.93370507 -99.44573586 131.70811404 -99.45018864 128.48246837 C-99.45313036 126.46115963 -99.45723729 124.43985642 -99.46169281 122.41855049 C-99.47535519 116.0769869 -99.4850267 109.73543613 -99.4888947 103.39385885 C-99.49336561 96.10633187 -99.51087358 88.81899337 -99.5398953 81.53152364 C-99.56161856 75.87773928 -99.5716047 70.2240075 -99.57293582 64.57018191 C-99.57397674 61.20340828 -99.58121058 57.8369522 -99.59775543 54.47019768 C-99.61493906 50.70386639 -99.61290518 46.93798616 -99.60644531 43.17163086 C-99.6156601 42.07765488 -99.62487488 40.98367889 -99.6343689 39.85655212 C-99.55549548 25.0688567 -95.53335111 10.19896345 -85.14453125 -0.8203125 C-57.34223521 -25.46977084 -29.10458806 -17.23346638 0 0 Z " fill="#1E65FF" transform="translate(417.25,357.5)"/>
</svg>
