<svg xmlns="http://www.w3.org/2000/svg" xmlns:xlink="http://www.w3.org/1999/xlink" width="506" zoomAndPan="magnify" viewBox="0 0 379.5 116.249996" height="155" preserveAspectRatio="xMidYMid meet" version="1.2"><defs><clipPath id="13f2914c7b"><path d="M 0.96875 7.058594 L 97.800781 7.058594 L 97.800781 107.65625 L 0.96875 107.65625 Z M 0.96875 7.058594 "/></clipPath><clipPath id="10edd9350c"><path d="M 85.101562 37.085938 L 39.066406 10.507812 C 22.132812 0.730469 0.96875 12.949219 0.96875 32.503906 L 0.96875 85.660156 L 25.316406 66.898438 L 25.316406 51.265625 C 25.316406 43.074219 31.980469 36.410156 40.167969 36.410156 C 42.75 36.410156 45.3125 37.101562 47.578125 38.410156 L 61.121094 46.230469 C 65.765625 48.910156 68.539062 53.714844 68.539062 59.082031 C 68.539062 64.445312 65.765625 69.25 61.121094 71.933594 L 47.578125 79.75 L 39.066406 107.65625 L 85.101562 81.078125 C 102.035156 71.300781 102.035156 46.863281 85.101562 37.085938 Z M 85.101562 37.085938 "/></clipPath><clipPath id="a9b36ceafc"><path d="M 85.101562 37.085938 L 39.066406 10.507812 C 22.132812 0.730469 0.96875 12.949219 0.96875 32.503906 L 0.96875 85.660156 L 25.316406 66.898438 L 25.316406 51.265625 C 25.316406 43.074219 31.980469 36.410156 40.167969 36.410156 C 42.75 36.410156 45.3125 37.101562 47.578125 38.410156 L 61.121094 46.230469 C 65.765625 48.910156 68.539062 53.714844 68.539062 59.082031 C 68.539062 64.445312 65.765625 69.25 61.121094 71.933594 L 47.578125 79.75 L 39.066406 107.65625 L 85.101562 81.078125 C 102.035156 71.300781 102.035156 46.863281 85.101562 37.085938 "/></clipPath><radialGradient gradientTransform="matrix(1,0,0,1,43.880566,55.963589)" id="eacc848b75" gradientUnits="userSpaceOnUse" r="69.171008" cx="0" fx="0" cy="0" fy="0"><stop style="stop-color:#797b80;stop-opacity:1;" offset="0"/><stop style="stop-color:#787b80;stop-opacity:1;" offset="0.015625"/><stop style="stop-color:#787a7f;stop-opacity:1;" offset="0.0195312"/><stop style="stop-color:#777a7f;stop-opacity:1;" offset="0.0234375"/><stop style="stop-color:#77797e;stop-opacity:1;" offset="0.0273438"/><stop style="stop-color:#77797d;stop-opacity:1;" offset="0.0390625"/><stop style="stop-color:#76797c;stop-opacity:1;" offset="0.0507812"/><stop style="stop-color:#75787c;stop-opacity:1;" offset="0.0625"/><stop style="stop-color:#75787b;stop-opacity:1;" offset="0.0664062"/><stop style="stop-color:#74777b;stop-opacity:1;" offset="0.0703125"/><stop style="stop-color:#74777b;stop-opacity:1;" offset="0.0742188"/><stop style="stop-color:#74767a;stop-opacity:1;" offset="0.0859375"/><stop style="stop-color:#73757a;stop-opacity:1;" offset="0.0976562"/><stop style="stop-color:#72757a;stop-opacity:1;" offset="0.101562"/><stop style="stop-color:#727479;stop-opacity:1;" offset="0.105469"/><stop style="stop-color:#717479;stop-opacity:1;" offset="0.109375"/><stop style="stop-color:#707478;stop-opacity:1;" offset="0.121094"/><stop style="stop-color:#707377;stop-opacity:1;" offset="0.132812"/><stop style="stop-color:#707277;stop-opacity:1;" offset="0.144531"/><stop style="stop-color:#6f7177;stop-opacity:1;" offset="0.148438"/><stop style="stop-color:#6f7176;stop-opacity:1;" offset="0.152344"/><stop style="stop-color:#6f7176;stop-opacity:1;" offset="0.15625"/><stop style="stop-color:#6e7075;stop-opacity:1;" offset="0.167969"/><stop style="stop-color:#6d7075;stop-opacity:1;" offset="0.171875"/><stop style="stop-color:#6d6f74;stop-opacity:1;" offset="0.183594"/><stop style="stop-color:#6d6f74;stop-opacity:1;" offset="0.1875"/><stop style="stop-color:#6d6e74;stop-opacity:1;" offset="0.191406"/><stop style="stop-color:#6c6e73;stop-opacity:1;" offset="0.195312"/><stop style="stop-color:#6c6d72;stop-opacity:1;" offset="0.199219"/><stop style="stop-color:#6b6d71;stop-opacity:1;" offset="0.210938"/><stop style="stop-color:#6a6d71;stop-opacity:1;" offset="0.222656"/><stop style="stop-color:#6a6c71;stop-opacity:1;" offset="0.226562"/><stop style="stop-color:#6a6c70;stop-opacity:1;" offset="0.230469"/><stop style="stop-color:#6a6b6f;stop-opacity:1;" offset="0.234375"/><stop style="stop-color:#696b6f;stop-opacity:1;" offset="0.246094"/><stop style="stop-color:#686a6e;stop-opacity:1;" offset="0.257812"/><stop style="stop-color:#67696e;stop-opacity:1;" offset="0.265625"/><stop style="stop-color:#66696d;stop-opacity:1;" offset="0.273438"/><stop style="stop-color:#65686c;stop-opacity:1;" offset="0.28125"/><stop style="stop-color:#65686c;stop-opacity:1;" offset="0.289062"/><stop style="stop-color:#65676c;stop-opacity:1;" offset="0.296875"/><stop style="stop-color:#65676c;stop-opacity:1;" offset="0.304688"/><stop style="stop-color:#64666b;stop-opacity:1;" offset="0.3125"/><stop style="stop-color:#63656b;stop-opacity:1;" offset="0.320312"/><stop style="stop-color:#63646a;stop-opacity:1;" offset="0.328125"/><stop style="stop-color:#626469;stop-opacity:1;" offset="0.335938"/><stop style="stop-color:#616469;stop-opacity:1;" offset="0.34375"/><stop style="stop-color:#616468;stop-opacity:1;" offset="0.351562"/><stop style="stop-color:#616368;stop-opacity:1;" offset="0.355469"/><stop style="stop-color:#606367;stop-opacity:1;" offset="0.363281"/><stop style="stop-color:#606266;stop-opacity:1;" offset="0.371094"/><stop style="stop-color:#606166;stop-opacity:1;" offset="0.378906"/><stop style="stop-color:#5f6165;stop-opacity:1;" offset="0.386719"/><stop style="stop-color:#5e6065;stop-opacity:1;" offset="0.394531"/><stop style="stop-color:#5e6064;stop-opacity:1;" offset="0.402344"/><stop style="stop-color:#5d5f64;stop-opacity:1;" offset="0.410156"/><stop style="stop-color:#5d5e63;stop-opacity:1;" offset="0.417969"/><stop style="stop-color:#5c5e63;stop-opacity:1;" offset="0.425781"/><stop style="stop-color:#5c5e62;stop-opacity:1;" offset="0.433594"/><stop style="stop-color:#5c5e62;stop-opacity:1;" offset="0.4375"/><stop style="stop-color:#5b5d61;stop-opacity:1;" offset="0.441406"/><stop style="stop-color:#5b5d61;stop-opacity:1;" offset="0.449219"/><stop style="stop-color:#5a5c60;stop-opacity:1;" offset="0.457031"/><stop style="stop-color:#595b5f;stop-opacity:1;" offset="0.472656"/><stop style="stop-color:#595b5f;stop-opacity:1;" offset="0.480469"/><stop style="stop-color:#585a5e;stop-opacity:1;" offset="0.488281"/><stop style="stop-color:#57595d;stop-opacity:1;" offset="0.503906"/><stop style="stop-color:#57595d;stop-opacity:1;" offset="0.507812"/><stop style="stop-color:#56595d;stop-opacity:1;" offset="0.511719"/><stop style="stop-color:#56585d;stop-opacity:1;" offset="0.515625"/><stop style="stop-color:#56585d;stop-opacity:1;" offset="0.519531"/><stop style="stop-color:#56585c;stop-opacity:1;" offset="0.523438"/><stop style="stop-color:#56575c;stop-opacity:1;" offset="0.527344"/><stop style="stop-color:#56575c;stop-opacity:1;" offset="0.53125"/><stop style="stop-color:#56575b;stop-opacity:1;" offset="0.535156"/><stop style="stop-color:#55565b;stop-opacity:1;" offset="0.539062"/><stop style="stop-color:#55565b;stop-opacity:1;" offset="0.542969"/><stop style="stop-color:#55565a;stop-opacity:1;" offset="0.546875"/><stop style="stop-color:#54555a;stop-opacity:1;" offset="0.550781"/><stop style="stop-color:#545559;stop-opacity:1;" offset="0.554688"/><stop style="stop-color:#545559;stop-opacity:1;" offset="0.566406"/><stop style="stop-color:#545459;stop-opacity:1;" offset="0.570312"/><stop style="stop-color:#535458;stop-opacity:1;" offset="0.574219"/><stop style="stop-color:#535358;stop-opacity:1;" offset="0.585938"/><stop style="stop-color:#525357;stop-opacity:1;" offset="0.589844"/><stop style="stop-color:#525357;stop-opacity:1;" offset="0.59375"/><stop style="stop-color:#525357;stop-opacity:1;" offset="0.597656"/><stop style="stop-color:#515256;stop-opacity:1;" offset="0.601562"/><stop style="stop-color:#515256;stop-opacity:1;" offset="0.605469"/><stop style="stop-color:#515256;stop-opacity:1;" offset="0.609375"/><stop style="stop-color:#515255;stop-opacity:1;" offset="0.613281"/><stop style="stop-color:#515155;stop-opacity:1;" offset="0.617188"/><stop style="stop-color:#505155;stop-opacity:1;" offset="0.621094"/><stop style="stop-color:#505155;stop-opacity:1;" offset="0.625"/><stop style="stop-color:#4f5154;stop-opacity:1;" offset="0.628906"/><stop style="stop-color:#4f5054;stop-opacity:1;" offset="0.636719"/><stop style="stop-color:#4f5054;stop-opacity:1;" offset="0.644531"/><stop style="stop-color:#4e4f53;stop-opacity:1;" offset="0.648438"/><stop style="stop-color:#4e4f52;stop-opacity:1;" offset="0.65625"/><stop style="stop-color:#4d4e52;stop-opacity:1;" offset="0.664062"/><stop style="stop-color:#4d4e51;stop-opacity:1;" offset="0.671875"/><stop style="stop-color:#4d4d51;stop-opacity:1;" offset="0.679688"/><stop style="stop-color:#4c4d50;stop-opacity:1;" offset="0.6875"/><stop style="stop-color:#4b4c50;stop-opacity:1;" offset="0.691406"/><stop style="stop-color:#4b4b4f;stop-opacity:1;" offset="0.707031"/><stop style="stop-color:#4a4b4e;stop-opacity:1;" offset="0.714844"/><stop style="stop-color:#4a4b4e;stop-opacity:1;" offset="0.722656"/><stop style="stop-color:#494a4d;stop-opacity:1;" offset="0.726562"/><stop style="stop-color:#49494c;stop-opacity:1;" offset="0.734375"/><stop style="stop-color:#48494c;stop-opacity:1;" offset="0.75"/><stop style="stop-color:#48494c;stop-opacity:1;" offset="0.757812"/><stop style="stop-color:#48484c;stop-opacity:1;" offset="0.761719"/><stop style="stop-color:#48484b;stop-opacity:1;" offset="0.765625"/><stop style="stop-color:#47484b;stop-opacity:1;" offset="0.769531"/><stop style="stop-color:#47474a;stop-opacity:1;" offset="0.773438"/><stop style="stop-color:#464749;stop-opacity:1;" offset="0.785156"/><stop style="stop-color:#464648;stop-opacity:1;" offset="0.796875"/><stop style="stop-color:#454548;stop-opacity:1;" offset="0.808594"/><stop style="stop-color:#444447;stop-opacity:1;" offset="0.820312"/><stop style="stop-color:#444447;stop-opacity:1;" offset="0.828125"/><stop style="stop-color:#434346;stop-opacity:1;" offset="0.835938"/><stop style="stop-color:#434246;stop-opacity:1;" offset="0.84375"/><stop style="stop-color:#424245;stop-opacity:1;" offset="0.851562"/><stop style="stop-color:#424245;stop-opacity:1;" offset="0.859375"/><stop style="stop-color:#414144;stop-opacity:1;" offset="0.867188"/><stop style="stop-color:#414144;stop-opacity:1;" offset="0.875"/><stop style="stop-color:#414043;stop-opacity:1;" offset="0.882812"/><stop style="stop-color:#414043;stop-opacity:1;" offset="0.886719"/><stop style="stop-color:#404043;stop-opacity:1;" offset="0.890625"/><stop style="stop-color:#404043;stop-opacity:1;" offset="0.894531"/><stop style="stop-color:#403f42;stop-opacity:1;" offset="0.898438"/><stop style="stop-color:#403f42;stop-opacity:1;" offset="0.902344"/><stop style="stop-color:#3f3f42;stop-opacity:1;" offset="0.90625"/><stop style="stop-color:#3f3e41;stop-opacity:1;" offset="0.910156"/><stop style="stop-color:#3e3e41;stop-opacity:1;" offset="0.917969"/><stop style="stop-color:#3e3e40;stop-opacity:1;" offset="0.925781"/><stop style="stop-color:#3e3e40;stop-opacity:1;" offset="0.933594"/><stop style="stop-color:#3d3d3f;stop-opacity:1;" offset="0.9375"/><stop style="stop-color:#3d3d3f;stop-opacity:1;" offset="0.941406"/><stop style="stop-color:#3d3c3f;stop-opacity:1;" offset="0.945312"/><stop style="stop-color:#3d3c3e;stop-opacity:1;" offset="0.949219"/><stop style="stop-color:#3c3b3e;stop-opacity:1;" offset="0.960938"/><stop style="stop-color:#3b3b3d;stop-opacity:1;" offset="0.96875"/><stop style="stop-color:#3b3b3d;stop-opacity:1;" offset="0.976562"/><stop style="stop-color:#3b3a3c;stop-opacity:1;" offset="0.980469"/><stop style="stop-color:#3b3a3c;stop-opacity:1;" offset="0.988281"/><stop style="stop-color:#3a3a3c;stop-opacity:1;" offset="0.992188"/><stop style="stop-color:#3a3a3c;stop-opacity:1;" offset="1"/></radialGradient></defs><g id="bd4ef85e47"><path style=" stroke:none;fill-rule:nonzero;fill:#1f66ff;fill-opacity:1;" d="M 43.894531 44.792969 L 57.433594 52.609375 C 62.417969 55.488281 62.417969 62.675781 57.433594 65.550781 L 43.894531 73.371094 C 38.914062 76.246094 32.6875 72.652344 32.6875 66.898438 L 32.6875 51.265625 C 32.6875 45.511719 38.914062 41.917969 43.894531 44.792969 "/><g clip-rule="nonzero" clip-path="url(#13f2914c7b)"><g clip-rule="nonzero" clip-path="url(#10edd9350c)"><g clip-rule="nonzero" clip-path="url(#a9b36ceafc)"><path style=" stroke:none;fill-rule:nonzero;fill:url(#eacc848b75);" d="M 0.96875 7.058594 L 0.96875 107.65625 L 97.800781 107.65625 L 97.800781 7.058594 Z M 0.96875 7.058594 "/></g></g></g><g style="fill:#585a5e;fill-opacity:1;"><g transform="translate(111.345657, 51.765019)"><path style="stroke:none" d="M 14.734375 0.6875 C 10.628906 0.6875 7.410156 -0.285156 5.078125 -2.234375 C 2.753906 -4.191406 1.59375 -6.878906 1.59375 -10.296875 L 10.4375 -10.296875 C 10.4375 -9.085938 10.804688 -8.140625 11.546875 -7.453125 C 12.285156 -6.773438 13.304688 -6.4375 14.609375 -6.4375 C 15.722656 -6.4375 16.597656 -6.65625 17.234375 -7.09375 C 17.867188 -7.53125 18.1875 -8.144531 18.1875 -8.9375 C 18.1875 -10.6875 16.28125 -11.941406 12.46875 -12.703125 C 5.363281 -14.054688 1.8125 -17.394531 1.8125 -22.71875 C 1.8125 -25.71875 2.890625 -28.085938 5.046875 -29.828125 C 7.210938 -31.566406 10.171875 -32.4375 13.921875 -32.4375 C 16.523438 -32.4375 18.785156 -31.992188 20.703125 -31.109375 C 22.628906 -30.234375 24.113281 -28.988281 25.15625 -27.375 C 26.195312 -25.757812 26.71875 -23.863281 26.71875 -21.6875 L 18.09375 -21.6875 C 18.09375 -22.894531 17.742188 -23.816406 17.046875 -24.453125 C 16.359375 -25.085938 15.378906 -25.40625 14.109375 -25.40625 C 13.046875 -25.40625 12.195312 -25.179688 11.5625 -24.734375 C 10.925781 -24.296875 10.609375 -23.6875 10.609375 -22.90625 C 10.609375 -22.09375 11.03125 -21.410156 11.875 -20.859375 C 12.726562 -20.316406 14.164062 -19.820312 16.1875 -19.375 C 20.0625 -18.519531 22.882812 -17.285156 24.65625 -15.671875 C 26.425781 -14.054688 27.3125 -11.929688 27.3125 -9.296875 C 27.3125 -6.179688 26.207031 -3.738281 24 -1.96875 C 21.789062 -0.195312 18.703125 0.6875 14.734375 0.6875 Z M 14.734375 0.6875 "/></g></g><g style="fill:#585a5e;fill-opacity:1;"><g transform="translate(137.606891, 51.765019)"><path style="stroke:none" d="M 10.9375 0 L 10.9375 -23.265625 L 1.265625 -23.265625 L 1.265625 -31.75 L 29.703125 -31.75 L 29.703125 -23.265625 L 20.046875 -23.265625 L 20.046875 0 Z M 10.9375 0 "/></g></g><g style="fill:#585a5e;fill-opacity:1;"><g transform="translate(165.86385, 51.765019)"><path style="stroke:none" d="M 3.359375 0 L 3.359375 -31.75 L 17.828125 -31.75 C 20.398438 -31.75 22.613281 -31.285156 24.46875 -30.359375 C 26.332031 -29.441406 27.769531 -28.132812 28.78125 -26.4375 C 29.789062 -24.75 30.296875 -22.722656 30.296875 -20.359375 C 30.296875 -18.160156 29.84375 -16.234375 28.9375 -14.578125 C 28.03125 -12.929688 26.726562 -11.640625 25.03125 -10.703125 L 30.890625 0 L 20.5 0 L 15.96875 -9.03125 L 12.515625 -9.03125 L 12.515625 0 Z M 12.34375 -16.328125 L 16.59375 -16.328125 C 18.050781 -16.328125 19.164062 -16.675781 19.9375 -17.375 C 20.707031 -18.070312 21.09375 -19.054688 21.09375 -20.328125 C 21.09375 -21.585938 20.707031 -22.554688 19.9375 -23.234375 C 19.164062 -23.921875 18.050781 -24.265625 16.59375 -24.265625 L 12.34375 -24.265625 Z M 12.34375 -16.328125 "/></g></g><g style="fill:#585a5e;fill-opacity:1;"><g transform="translate(195.799024, 51.765019)"><path style="stroke:none" d="M 3.359375 0 L 3.359375 -31.75 L 25.125 -31.75 L 25.125 -24.359375 L 12.421875 -24.359375 L 12.421875 -19.734375 L 23.90625 -19.734375 L 23.90625 -12.390625 L 12.421875 -12.390625 L 12.421875 -7.484375 L 25.625 -7.484375 L 25.625 0 Z M 3.359375 0 "/></g></g><g style="fill:#585a5e;fill-opacity:1;"><g transform="translate(220.74493, 51.765019)"><path style="stroke:none" d="M 0.234375 0 L 12.5625 -31.75 L 21.640625 -31.75 L 33.96875 0 L 24.21875 0 L 22.5 -4.484375 L 11.65625 -4.484375 L 9.9375 0 Z M 13.5625 -11.203125 L 20.640625 -11.203125 L 17.09375 -21.046875 Z M 13.5625 -11.203125 "/></g></g><g style="fill:#585a5e;fill-opacity:1;"><g transform="translate(252.222231, 51.765019)"><path style="stroke:none" d="M 3.359375 0 L 3.359375 -31.75 L 10.84375 -31.75 L 21.5 -16.640625 L 32.203125 -31.75 L 39.640625 -31.75 L 39.640625 0 L 30.578125 0 L 30.578125 -16.0625 L 24.5 -7.53125 L 18.546875 -7.53125 L 12.421875 -16.109375 L 12.421875 0 Z M 3.359375 0 "/></g></g><g style="fill:#585a5e;fill-opacity:1;"><g transform="translate(292.49874, 51.765019)"><path style="stroke:none" d="M 3.359375 0 L 3.359375 -31.75 L 12.515625 -31.75 L 12.515625 0 Z M 3.359375 0 "/></g></g><g style="fill:#585a5e;fill-opacity:1;"><g transform="translate(305.651894, 51.765019)"><path style="stroke:none" d="M 3.359375 0 L 3.359375 -31.75 L 24.3125 -31.75 L 24.3125 -23.59375 L 12.515625 -23.59375 L 12.515625 -17.375 L 23.140625 -17.375 L 23.140625 -9.4375 L 12.515625 -9.4375 L 12.515625 0 Z M 3.359375 0 "/></g></g><g style="fill:#585a5e;fill-opacity:1;"><g transform="translate(328.964962, 51.765019)"><path style="stroke:none" d="M 11.796875 0 L 11.796875 -11.015625 L 0.234375 -31.75 L 10.515625 -31.75 L 13.875 -25.171875 L 16.328125 -20.359375 L 22.09375 -31.75 L 32.484375 -31.75 L 20.90625 -11.0625 L 20.90625 0 Z M 11.796875 0 "/></g></g><g style="fill:#1f66ff;fill-opacity:1;"><g transform="translate(111.345657, 85.849053)"><path style="stroke:none" d="M 18.828125 0.6875 C 16.285156 0.6875 13.960938 0.285156 11.859375 -0.515625 C 9.753906 -1.316406 7.929688 -2.457031 6.390625 -3.9375 C 4.847656 -5.425781 3.65625 -7.179688 2.8125 -9.203125 C 1.96875 -11.234375 1.546875 -13.457031 1.546875 -15.875 C 1.546875 -18.289062 1.96875 -20.507812 2.8125 -22.53125 C 3.65625 -24.5625 4.847656 -26.316406 6.390625 -27.796875 C 7.929688 -29.285156 9.753906 -30.429688 11.859375 -31.234375 C 13.960938 -32.035156 16.285156 -32.4375 18.828125 -32.4375 C 21.367188 -32.4375 23.6875 -32.035156 25.78125 -31.234375 C 27.882812 -30.429688 29.707031 -29.285156 31.25 -27.796875 C 32.789062 -26.316406 33.984375 -24.5625 34.828125 -22.53125 C 35.679688 -20.507812 36.109375 -18.289062 36.109375 -15.875 C 36.109375 -13.457031 35.679688 -11.234375 34.828125 -9.203125 C 33.984375 -7.179688 32.789062 -5.425781 31.25 -3.9375 C 29.707031 -2.457031 27.882812 -1.316406 25.78125 -0.515625 C 23.6875 0.285156 21.367188 0.6875 18.828125 0.6875 Z M 10.84375 -15.875 C 10.84375 -14.300781 11.179688 -12.898438 11.859375 -11.671875 C 12.535156 -10.453125 13.476562 -9.5 14.6875 -8.8125 C 15.90625 -8.132812 17.285156 -7.796875 18.828125 -7.796875 C 20.398438 -7.796875 21.78125 -8.132812 22.96875 -8.8125 C 24.164062 -9.5 25.101562 -10.453125 25.78125 -11.671875 C 26.46875 -12.898438 26.8125 -14.300781 26.8125 -15.875 C 26.8125 -17.476562 26.46875 -18.882812 25.78125 -20.09375 C 25.101562 -21.300781 24.164062 -22.242188 22.96875 -22.921875 C 21.78125 -23.609375 20.398438 -23.953125 18.828125 -23.953125 C 17.285156 -23.953125 15.90625 -23.609375 14.6875 -22.921875 C 13.476562 -22.242188 12.535156 -21.300781 11.859375 -20.09375 C 11.179688 -18.882812 10.84375 -17.476562 10.84375 -15.875 Z M 10.84375 -15.875 "/></g></g><g style="fill:#1f66ff;fill-opacity:1;"><g transform="translate(146.315389, 85.849053)"><path style="stroke:none" d="M 3.359375 0 L 3.359375 -31.75 L 17.828125 -31.75 C 20.398438 -31.75 22.613281 -31.285156 24.46875 -30.359375 C 26.332031 -29.441406 27.769531 -28.132812 28.78125 -26.4375 C 29.789062 -24.75 30.296875 -22.722656 30.296875 -20.359375 C 30.296875 -18.160156 29.84375 -16.234375 28.9375 -14.578125 C 28.03125 -12.929688 26.726562 -11.640625 25.03125 -10.703125 L 30.890625 0 L 20.5 0 L 15.96875 -9.03125 L 12.515625 -9.03125 L 12.515625 0 Z M 12.34375 -16.328125 L 16.59375 -16.328125 C 18.050781 -16.328125 19.164062 -16.675781 19.9375 -17.375 C 20.707031 -18.070312 21.09375 -19.054688 21.09375 -20.328125 C 21.09375 -21.585938 20.707031 -22.554688 19.9375 -23.234375 C 19.164062 -23.921875 18.050781 -24.265625 16.59375 -24.265625 L 12.34375 -24.265625 Z M 12.34375 -16.328125 "/></g></g><g style="fill:#1f66ff;fill-opacity:1;"><g transform="translate(176.250563, 85.849053)"><path style="stroke:none" d="M 3.359375 0 L 3.359375 -31.75 L 12.515625 -31.75 L 12.515625 0 Z M 3.359375 0 "/></g></g><g style="fill:#1f66ff;fill-opacity:1;"><g transform="translate(189.403717, 85.849053)"><path style="stroke:none" d="M 18.5 0.6875 C 15.144531 0.6875 12.191406 -0.0078125 9.640625 -1.40625 C 7.085938 -2.800781 5.097656 -4.742188 3.671875 -7.234375 C 2.253906 -9.734375 1.546875 -12.613281 1.546875 -15.875 C 1.546875 -19.144531 2.253906 -22.019531 3.671875 -24.5 C 5.097656 -26.976562 7.070312 -28.921875 9.59375 -30.328125 C 12.113281 -31.734375 15.039062 -32.4375 18.375 -32.4375 C 21.0625 -32.4375 23.523438 -31.96875 25.765625 -31.03125 C 28.003906 -30.09375 29.898438 -28.773438 31.453125 -27.078125 C 33.015625 -25.390625 34.097656 -23.378906 34.703125 -21.046875 L 24.953125 -21.046875 C 24.347656 -22.046875 23.476562 -22.832031 22.34375 -23.40625 C 21.207031 -23.976562 19.925781 -24.265625 18.5 -24.265625 C 16.925781 -24.265625 15.539062 -23.910156 14.34375 -23.203125 C 13.15625 -22.492188 12.226562 -21.507812 11.5625 -20.25 C 10.894531 -19 10.5625 -17.539062 10.5625 -15.875 C 10.5625 -14.269531 10.878906 -12.832031 11.515625 -11.5625 C 12.148438 -10.289062 13.066406 -9.289062 14.265625 -8.5625 C 15.460938 -7.84375 16.90625 -7.484375 18.59375 -7.484375 C 20.40625 -7.484375 21.925781 -7.898438 23.15625 -8.734375 C 24.382812 -9.566406 25.222656 -10.644531 25.671875 -11.96875 L 16.921875 -11.96875 L 16.921875 -18.421875 L 35.296875 -18.421875 C 35.535156 -15.640625 35.3125 -13.082031 34.625 -10.75 C 33.945312 -8.414062 32.859375 -6.394531 31.359375 -4.6875 C 29.867188 -2.976562 28.035156 -1.65625 25.859375 -0.71875 C 23.679688 0.21875 21.226562 0.6875 18.5 0.6875 Z M 18.5 0.6875 "/></g></g><g style="fill:#1f66ff;fill-opacity:1;"><g transform="translate(223.511675, 85.849053)"><path style="stroke:none" d="M 3.359375 0 L 3.359375 -31.75 L 12.515625 -31.75 L 12.515625 0 Z M 3.359375 0 "/></g></g><g style="fill:#1f66ff;fill-opacity:1;"><g transform="translate(236.664829, 85.849053)"><path style="stroke:none" d="M 3.359375 0 L 3.359375 -31.75 L 10.84375 -31.75 L 22.90625 -15.65625 L 22.90625 -31.75 L 31.9375 -31.75 L 31.9375 0 L 24.5 0 L 12.421875 -16.1875 L 12.421875 0 Z M 3.359375 0 "/></g></g><g style="fill:#1f66ff;fill-opacity:1;"><g transform="translate(269.276036, 85.849053)"><path style="stroke:none" d="M 0.234375 0 L 12.5625 -31.75 L 21.640625 -31.75 L 33.96875 0 L 24.21875 0 L 22.5 -4.484375 L 11.65625 -4.484375 L 9.9375 0 Z M 13.5625 -11.203125 L 20.640625 -11.203125 L 17.09375 -21.046875 Z M 13.5625 -11.203125 "/></g></g><g style="fill:#1f66ff;fill-opacity:1;"><g transform="translate(300.753337, 85.849053)"><path style="stroke:none" d="M 3.359375 0 L 3.359375 -31.75 L 12.515625 -31.75 L 12.515625 -8.484375 L 25.484375 -8.484375 L 25.484375 0 Z M 3.359375 0 "/></g></g><g style="fill:#1f66ff;fill-opacity:1;"><g transform="translate(324.656047, 85.849053)"><path style="stroke:none" d="M 14.734375 0.6875 C 10.628906 0.6875 7.410156 -0.285156 5.078125 -2.234375 C 2.753906 -4.191406 1.59375 -6.878906 1.59375 -10.296875 L 10.4375 -10.296875 C 10.4375 -9.085938 10.804688 -8.140625 11.546875 -7.453125 C 12.285156 -6.773438 13.304688 -6.4375 14.609375 -6.4375 C 15.722656 -6.4375 16.597656 -6.65625 17.234375 -7.09375 C 17.867188 -7.53125 18.1875 -8.144531 18.1875 -8.9375 C 18.1875 -10.6875 16.28125 -11.941406 12.46875 -12.703125 C 5.363281 -14.054688 1.8125 -17.394531 1.8125 -22.71875 C 1.8125 -25.71875 2.890625 -28.085938 5.046875 -29.828125 C 7.210938 -31.566406 10.171875 -32.4375 13.921875 -32.4375 C 16.523438 -32.4375 18.785156 -31.992188 20.703125 -31.109375 C 22.628906 -30.234375 24.113281 -28.988281 25.15625 -27.375 C 26.195312 -25.757812 26.71875 -23.863281 26.71875 -21.6875 L 18.09375 -21.6875 C 18.09375 -22.894531 17.742188 -23.816406 17.046875 -24.453125 C 16.359375 -25.085938 15.378906 -25.40625 14.109375 -25.40625 C 13.046875 -25.40625 12.195312 -25.179688 11.5625 -24.734375 C 10.925781 -24.296875 10.609375 -23.6875 10.609375 -22.90625 C 10.609375 -22.09375 11.03125 -21.410156 11.875 -20.859375 C 12.726562 -20.316406 14.164062 -19.820312 16.1875 -19.375 C 20.0625 -18.519531 22.882812 -17.285156 24.65625 -15.671875 C 26.425781 -14.054688 27.3125 -11.929688 27.3125 -9.296875 C 27.3125 -6.179688 26.207031 -3.738281 24 -1.96875 C 21.789062 -0.195312 18.703125 0.6875 14.734375 0.6875 Z M 14.734375 0.6875 "/></g></g></g></svg>