<?xml version="1.0" encoding="UTF-8"?>
<svg version="1.1" xmlns="http://www.w3.org/2000/svg" width="875" height="875">
<path d="M0 0 C2.03106419 1.18521432 4.0623079 2.37012104 6.09375 3.5546875 C9.05079038 5.27934341 12.00757568 7.0044257 14.96337891 8.73120117 C22.25434115 12.98913745 29.56092765 17.2194008 36.875 21.4375 C37.94508301 22.0557666 39.01516602 22.6740332 40.11767578 23.31103516 C45.14895512 26.21546579 50.1850139 29.11035486 55.24191284 31.96992493 C56.99234978 32.96051442 58.74082821 33.95447736 60.48876953 34.94946289 C62.66302782 36.18582736 64.84080837 37.41602946 67.02294922 38.63842773 C84.93178143 48.85041364 97.96025512 60.52524777 104.1328125 80.703125 C108.00021509 97.17539527 105.29963457 114.35219251 96.8125 128.8125 C90.21559896 138.37445978 82.28633974 145.02616943 72.24072266 150.72705078 C69.56151473 152.24910244 66.89620031 153.79431173 64.23046875 155.33984375 C59.76633136 157.92475623 55.29707137 160.50051177 50.82421875 163.0703125 C44.53401038 166.68729329 38.26370596 170.33736419 32 174 C20.49091713 180.72524982 8.94715053 187.38945444 -2.60351562 194.04296875 C-8.02446492 197.16648295 -13.44336866 200.29354116 -18.86236572 203.42044067 C-21.65034759 205.02913682 -24.43846015 206.63760642 -27.2265625 208.24609375 C-28.15033691 208.77904053 -29.07411133 209.3119873 -30.02587891 209.86108398 C-30.67733887 210.23692627 -31.32879883 210.61276855 -32 211 C-33.2534828 207.23955161 -32.56385226 205.78079618 -31.41699219 202.015625 C-30.86081207 200.16855957 -30.86081207 200.16855957 -30.293396 198.28417969 C-29.8783575 196.93930845 -29.46283876 195.59458534 -29.046875 194.25 C-28.62615519 192.87156957 -28.20593497 191.49298657 -27.78619385 190.11425781 C-26.90406324 187.22411218 -26.0155325 184.33603182 -25.12255859 181.44921875 C-23.97911876 177.75069753 -22.85218542 174.04738882 -21.73008347 170.34234619 C-20.8652925 167.49379846 -19.99151229 164.64806988 -19.11502838 161.80310059 C-18.69596354 160.43882934 -18.27975929 159.07367598 -17.86647797 157.7076416 C-17.28703365 155.79707584 -16.69410357 153.89061582 -16.10058594 151.984375 C-15.76669861 150.89866211 -15.43281128 149.81294922 -15.08880615 148.69433594 C-13.19487752 144.00766149 -10.12939012 142.34277998 -5.84375 139.890625 C-4.30847656 139.00503906 -4.30847656 139.00503906 -2.7421875 138.1015625 C-1.67226562 137.49054688 -0.60234375 136.87953125 0.5 136.25 C22.39724715 124.59314552 22.39724715 124.59314552 34.5859375 104.04296875 C36.36022959 95.28867851 34.79875529 86.97953301 31 79 C25.19009041 70.79683113 17.90975495 66.02545378 9.1875 61.3125 C6.97253097 60.07965214 4.75768662 58.84658024 2.54296875 57.61328125 C1.45935059 57.0198291 0.37573242 56.42637695 -0.74072266 55.81494141 C-4.96856111 53.46065294 -9.11412112 50.97684049 -13.25268555 48.46948242 C-22.52206517 43.51148047 -32.00927438 43.09806958 -42 46 C-50.62370234 49.5291266 -57.10409454 55.33195936 -61.17578125 63.71484375 C-63.65060644 70.57632592 -64.18291145 76.30413035 -63.81640625 83.51171875 C-62.84209604 114.75012981 -62.84209604 114.75012981 -68.38671875 121.30078125 C-71.83677021 124.2202715 -75.65348983 126.18763982 -79.7890625 127.97119141 C-83.18415312 129.55101825 -85.88136269 131.81394838 -88.75 134.1875 C-89.78640625 134.98542969 -90.8228125 135.78335938 -91.890625 136.60546875 C-93.42976563 137.79076172 -93.42976563 137.79076172 -95 139 C-96.07806383 139.82950659 -97.15618956 140.65893273 -98.234375 141.48828125 C-98.77384766 141.90327881 -99.31332031 142.31827637 -99.86914062 142.74584961 C-100.94574467 143.57377102 -102.0225633 144.40141348 -103.09960938 145.22875977 C-105.96285678 147.42894394 -108.82066692 149.63579226 -111.671875 151.8515625 C-112.27064453 152.315625 -112.86941406 152.7796875 -113.48632812 153.2578125 C-114.64279282 154.15429676 -115.79779574 155.05267061 -116.95117188 155.953125 C-120.8875378 159 -120.8875378 159 -122 159 C-122.09369902 141.36197555 -122.16410387 123.72402946 -122.20724869 106.08581257 C-122.22781959 97.89493267 -122.25583462 89.70420797 -122.30175781 81.51342773 C-122.34179415 74.36917245 -122.36747252 67.22502965 -122.37635398 60.08066529 C-122.38154052 56.30241248 -122.3936144 52.52448127 -122.42292023 48.74633217 C-122.45035599 45.17990258 -122.45838921 41.61392272 -122.45243073 38.04739761 C-122.45403171 36.13542651 -122.4754056 34.22350278 -122.49768066 32.31166077 C-122.42303099 16.41948262 -116.79023884 2.8368947 -105.9375 -8.75 C-71.19906295 -41.59275154 -34.37430901 -20.11241225 0 0 Z " fill="#56575B" transform="translate(133,345)"/>
<path d="M0 0 C17.16 0 34.32 0 52 0 C52 5.94 52 11.88 52 18 C42.1 18 32.2 18 22 18 C22 21.3 22 24.6 22 28 C30.91 28 39.82 28 49 28 C49 33.94 49 39.88 49 46 C40.09 46 31.18 46 22 46 C22 49.63 22 53.26 22 57 C32.23 57 42.46 57 53 57 C53.495 61.455 53.495 61.455 54 66 C54.26673523 65.30588516 54.53347046 64.61177032 54.80828857 63.8966217 C57.33588331 57.32040623 59.86574356 50.74506779 62.39808273 44.17067814 C63.69956059 40.79158415 65.00019356 37.41217026 66.29882812 34.03198242 C67.55466552 30.76328674 68.81281037 27.49548758 70.07248688 24.22826958 C70.78074838 22.38952322 71.48668444 20.54988168 72.19256592 18.71022034 C72.63272034 17.56971725 73.07287476 16.42921417 73.52636719 15.25415039 C74.09928497 13.76523033 74.09928497 13.76523033 74.68377686 12.24623108 C76.35591127 8.12220793 78.19263361 4.06657438 80 0 C87.26 0 94.52 0 102 0 C106.49961282 8.99922565 106.49961282 8.99922565 107.7800293 12.39868164 C108.07129196 13.16543716 108.36255463 13.93219269 108.66264343 14.72218323 C108.96346329 15.52671432 109.26428314 16.33124542 109.57421875 17.16015625 C110.06260979 18.44991615 110.06260979 18.44991615 110.56086731 19.76573181 C111.60686314 22.52990802 112.64721937 25.2961685 113.6875 28.0625 C115.11658503 31.84577353 116.54842507 35.6280018 117.98046875 39.41015625 C118.32919037 40.33228912 118.67791199 41.254422 119.03720093 42.20449829 C122.15073056 50.42663927 125.34418248 58.61542571 128.61206055 66.77758789 C128.93601807 67.59348389 129.25997559 68.40937988 129.59375 69.25 C130.00657227 70.27867187 130.00657227 70.27867187 130.42773438 71.328125 C131 73 131 73 131 75 C123.08 75 115.16 75 107 75 C104 68 104 68 104 65 C91.625 65.495 91.625 65.495 79 66 C77.68 68.97 76.36 71.94 75 75 C50.25 75 25.5 75 0 75 C0 50.25 0 25.5 0 0 Z M91 28 C88.12115193 34.59278183 85.49134192 40.95001999 84 48 C88.62 48 93.24 48 98 48 C96.63125844 41.04223041 94.5466871 34.61396893 92 28 C91.67 28 91.34 28 91 28 Z " fill="#57595D" transform="translate(476,349)"/>
<path d="M0 0 C5.06599029 4.34227739 9.19681033 8.53750856 10.625 15.25 C10.625 17.23 10.625 19.21 10.625 21.25 C3.695 21.25 -3.235 21.25 -10.375 21.25 C-11.365 19.27 -12.355 17.29 -13.375 15.25 C-16.54524765 13.66487617 -19.92167028 13.82627856 -23.375 14.25 C-25.384245 15.58358994 -25.384245 15.58358994 -26.375 17.25 C-25.95877402 19.71955394 -25.95877402 19.71955394 -24.375 22.25 C-20.5243785 24.09829832 -16.67801011 25.16382567 -12.5703125 26.33203125 C4.6389538 31.32251578 4.6389538 31.32251578 10.0625 39.5625 C13.04965625 45.5899175 13.2609562 52.02013626 11.34765625 58.40625 C9.23043796 63.80801776 5.63267691 68.30184783 0.625 71.25 C-9.61982682 75.52580418 -22.88839553 76.15717116 -33.375 72.25 C-39.45537193 69.32036625 -44.30693132 65.38613736 -47.375 59.25 C-47.705 63.54 -48.035 67.83 -48.375 72.25 C-65.865 72.25 -83.355 72.25 -101.375 72.25 C-101.375 47.5 -101.375 22.75 -101.375 -2.75 C-93.785 -2.75 -86.195 -2.75 -78.375 -2.75 C-78.375 15.4 -78.375 33.55 -78.375 52.25 C-68.805 52.25 -59.235 52.25 -49.375 52.25 C-49.375 50.6 -49.375 48.95 -49.375 47.25 C-42.115 47.25 -34.855 47.25 -27.375 47.25 C-26.385 49.56 -25.395 51.87 -24.375 54.25 C-19.72410371 56.35606625 -16.29594675 56.45023091 -11.375 55.25 C-11.375 52.61 -11.375 49.97 -11.375 47.25 C-12.53 46.858125 -13.685 46.46625 -14.875 46.0625 C-15.6896875 45.78535156 -16.504375 45.50820313 -17.34375 45.22265625 C-19.61978506 44.49233057 -21.91541634 43.82262839 -24.21875 43.18359375 C-33.75068593 40.51139484 -41.73052002 37.77193936 -47.4375 29.125 C-49.07760224 22.34591073 -49.49203201 15.37768962 -47.125 8.75 C-46.25875 7.5125 -46.25875 7.5125 -45.375 6.25 C-44.818125 5.38375 -44.26125 4.5175 -43.6875 3.625 C-32.66031864 -7.70021328 -13.09928932 -6.79222409 0 0 Z " fill="#1E65FF" transform="translate(823.375,431.75)"/>
<path d="M0 0 C23.76 0 47.52 0 72 0 C75.96 7.26 79.92 14.52 84 22 C84.99 22.99 84.99 22.99 86 24 C89.96 16.08 93.92 8.16 98 0 C106.58 0 115.16 0 124 0 C118.42748631 11.47282231 112.37739816 22.57860113 106.05078125 33.65234375 C105.53878174 34.56363037 105.02678223 35.47491699 104.49926758 36.41381836 C103.55731051 38.03865978 102.5702838 39.6390014 101.5222168 41.19750977 C97.21218799 47.87092881 97.22478011 54.27095646 97.1875 62.0625 C97.16236328 63.30966797 97.13722656 64.55683594 97.11132812 65.84179688 C97.05285303 68.89419674 97.0234672 71.94713027 97 75 C89.41 75 81.82 75 74 75 C74.10183594 73.36417969 74.20367188 71.72835937 74.30859375 70.04296875 C74.87740327 51.25964545 69.88441925 39.46487776 59.96777344 24.08642578 C56.82035952 19.14975001 53.9163733 14.07612425 51 9 C50.67 12.63 50.34 16.26 50 20 C40.76 20 31.52 20 22 20 C22 24.62 22 29.24 22 34 C30.25 34 38.5 34 47 34 C47 40.27 47 46.54 47 53 C38.75 53 30.5 53 22 53 C22 60.26 22 67.52 22 75 C14.74 75 7.48 75 0 75 C0 50.25 0 25.5 0 0 Z " fill="#57595D" transform="translate(734,349)"/>
<path d="M0 0 C19 0 19 0 23.3125 3.375 C24.7355957 5.59033203 24.7355957 5.59033203 26 8 C26.49653076 8.80421387 26.99306152 9.60842773 27.50463867 10.43701172 C28.53161819 12.10110645 29.53331877 13.78106446 30.50927734 15.47558594 C32.89202979 19.5105778 35.61471787 23.29701861 38.3125 27.125 C39.88190728 29.41203314 41.44055802 31.70615148 43 34 C49.73227663 25.16462125 56.31023193 16.26672349 62.52075195 7.0546875 C64.22993813 4.52703137 65.83657168 2.16342832 68 0 C73.94 0 79.88 0 86 0 C86 24.75 86 49.5 86 75 C78.74 75 71.48 75 64 75 C63.67 63.78 63.34 52.56 63 41 C60.4940625 45.2075 60.4940625 45.2075 57.9375 49.5 C52.23321465 58.08158343 52.23321465 58.08158343 47.21484375 59.5859375 C42.37337333 59.95040221 38.35617115 59.88103166 34.40917969 56.72998047 C30.97450345 53.21255461 28.47684845 49.22550346 26 45 C24.515 42.525 24.515 42.525 23 40 C22.67 51.55 22.34 63.1 22 75 C14.74 75 7.48 75 0 75 C0 50.25 0 25.5 0 0 Z " fill="#57595D" transform="translate(608,349)"/>
<path d="M0 0 C10.7100829 0.18900146 22.1293225 4.17111975 30.0625 11.4375 C34.23620343 15.93758308 38.25 21.98661255 38.25 28.25 C34.37539922 28.39584726 30.50150883 28.48425444 26.625 28.5625 C24.98337891 28.6253418 24.98337891 28.6253418 23.30859375 28.68945312 C14.19644665 28.82751596 14.19644665 28.82751596 10.74609375 25.82421875 C9.92238281 24.97472656 9.09867187 24.12523437 8.25 23.25 C3.59584986 21.10567952 -0.61393492 20.89535966 -5.5 22.375 C-9.94559052 24.14392607 -13.65568209 26.04980448 -15.859375 30.48046875 C-17.86893824 36.72950531 -17.70938002 43.89152412 -15.25 49.9375 C-14.755 50.700625 -14.26 51.46375 -13.75 52.25 C-13.75 52.91 -13.75 53.57 -13.75 54.25 C-7.52821207 57.6001935 -1.78803595 59.05867918 5.25 58.25 C10.48165453 56.3745012 11.57321682 54.84597897 15.25 50.25 C8.65 49.92 2.05 49.59 -4.75 49.25 C-4.770625 46.795625 -4.79125 44.34125 -4.8125 41.8125 C-4.821604 41.03849854 -4.83070801 40.26449707 -4.84008789 39.46704102 C-4.84724913 37.72778283 -4.80024702 35.98854696 -4.75 34.25 C-3.75 33.25 -3.75 33.25 -1.95933533 33.12974548 C-1.17990067 33.13196609 -0.400466 33.13418671 0.40258789 33.13647461 C1.28342545 33.13655014 2.164263 33.13662567 3.0717926 33.13670349 C4.02907761 33.14186478 4.98636261 33.14702606 5.97265625 33.15234375 C7.43547279 33.15446617 7.43547279 33.15446617 8.92784119 33.15663147 C12.05609143 33.16224867 15.18427123 33.17480407 18.3125 33.1875 C20.42773334 33.19251278 22.54296781 33.19707607 24.65820312 33.20117188 C29.85549296 33.21222369 35.05274145 33.22897854 40.25 33.25 C40.50729317 46.75262515 38.4524021 58.72634241 29.0625 69 C19.73093676 77.74326903 7.79254808 80.01254481 -4.578125 79.6171875 C-16.10763616 78.86526286 -25.19849456 73.84002289 -32.75 65.25 C-34.50163925 62.91938755 -35.52077877 60.95428671 -36.75 58.25 C-37.5853125 56.5175 -37.5853125 56.5175 -38.4375 54.75 C-42.37899851 43.51346281 -41.43649374 31.21832188 -36.4921875 20.53125 C-30.76218069 10.1358278 -22.94023291 4.86414279 -11.75 1.25 C-7.8538978 0.34314863 -3.98626517 0.26575101 0 0 Z " fill="#1E65FF" transform="translate(496.75,426.75)"/>
<path d="M0 0 C7.21734452 5.7387913 11.55813413 11.98346736 14.25 20.7890625 C14.44078125 21.38976562 14.6315625 21.99046875 14.828125 22.609375 C17.066855 34.17614667 15.12640175 44.83827316 9.4375 55.0390625 C2.41673012 63.86517321 -6.15992182 70.46026373 -17.75 71.7890625 C-31.36589595 72.59337703 -42.52512696 71.14640495 -53.75 62.7890625 C-62.02411413 55.14776781 -66.1130423 46.04716315 -66.97265625 34.90234375 C-67.29594862 23.92445923 -64.50619452 14.54709243 -57.75 5.7890625 C-42.6556331 -9.07789397 -17.79809828 -11.88491431 0 0 Z M-39.625 19.6640625 C-43.52542481 25.39998134 -44.48217559 29.92786869 -43.75 36.7890625 C-42.00612992 42.84131749 -38.8644223 46.32520376 -33.75 49.7890625 C-28.06607788 51.68370321 -21.98252769 51.68206875 -16.4375 49.2890625 C-12.06848261 46.73677648 -9.4219828 43.57279108 -7.75 38.7890625 C-6.87324374 32.36513684 -6.80062454 26.1865423 -10.75 20.7890625 C-15.26882804 16.46670524 -18.82722646 14.06479585 -25.0625 13.4765625 C-30.85015269 13.96704154 -35.69093073 15.17459522 -39.625 19.6640625 Z " fill="#1E65FF" transform="translate(339.75,434.2109375)"/>
<path d="M0 0 C18 0 18 0 22.875 4.5 C23.89299124 6.05208526 24.90813438 7.60710346 25.86474609 9.19775391 C28.06800463 12.69548606 30.6753484 15.90870771 33.1875 19.1875 C34.16268012 20.49160609 35.13539332 21.79756102 36.10546875 23.10546875 C39.05869524 27.07897322 42.02952825 31.03937101 45 35 C45.33 23.45 45.66 11.9 46 0 C53.26 0 60.52 0 68 0 C68 24.75 68 49.5 68 75 C49 75 49 75 44.1875 70.6875 C43.1786475 69.12632623 42.17442442 67.56114203 41.22705078 65.96191406 C39.19327644 62.71014116 36.84926162 59.69180398 34.5480957 56.6262207 C32.16319619 53.44685929 29.82282773 50.23620418 27.48291016 47.02368164 C26.00350621 45.00478481 24.50174863 43.00233151 23 41 C22.67 52.22 22.34 63.44 22 75 C14.74 75 7.48 75 0 75 C0 50.25 0 25.5 0 0 Z " fill="#1E65FF" transform="translate(572,429)"/>
<path d="M0 0 C9.838125 -0.0928125 9.838125 -0.0928125 19.875 -0.1875 C21.92444824 -0.21481201 23.97389648 -0.24212402 26.08544922 -0.27026367 C27.74185602 -0.27903986 29.39826938 -0.2866811 31.0546875 -0.29296875 C31.8887915 -0.30831665 32.72289551 -0.32366455 33.58227539 -0.33947754 C42.16654983 -0.34322177 50.21836848 1.51010782 57 7 C63.01193407 13.35547316 64.97439389 20.4347564 65 29 C64.49446864 36.2642658 62.26533401 41.86063092 57 47 C54.8046875 48.21875 54.8046875 48.21875 53 49 C53.51949219 50.03898437 54.03898437 51.07796875 54.57421875 52.1484375 C58.3828125 59.765625 62.19140625 67.3828125 66 75 C57.42 75 48.84 75 40 75 C35.4375 65.0625 35.4375 65.0625 34.04858398 61.92602539 C33.66001221 61.11641357 33.27144043 60.30680176 32.87109375 59.47265625 C32.48880615 58.64000244 32.10651855 57.80734863 31.71264648 56.94946289 C29.65031868 54.1757897 29.65031868 54.1757897 23 54 C23 60.93 23 67.86 23 75 C15.41 75 7.82 75 0 75 C0 50.25 0 25.5 0 0 Z M22 18 C22 23.94 22 29.88 22 36 C24.2275 36.04125 26.455 36.0825 28.75 36.125 C30.62945312 36.15980469 30.62945312 36.15980469 32.546875 36.1953125 C35.74805947 36.01425003 37.38925276 35.76978539 40 34 C42.3020949 30.77706714 42.47510654 27.88003676 42 24 C40.12757791 20.75926946 38.97965494 19.30322653 35.375 18.1875 C30.90506457 17.93917025 26.47704053 17.93949945 22 18 Z " fill="#1E65FF" transform="translate(359,429)"/>
<path d="M0 0 C9.838125 -0.0928125 9.838125 -0.0928125 19.875 -0.1875 C21.92444824 -0.21481201 23.97389648 -0.24212402 26.08544922 -0.27026367 C27.74185602 -0.27903986 29.39826938 -0.2866811 31.0546875 -0.29296875 C31.8887915 -0.30831665 32.72289551 -0.32366455 33.58227539 -0.33947754 C42.16654983 -0.34322177 50.21836848 1.51010782 57 7 C63.01193407 13.35547316 64.97439389 20.4347564 65 29 C64.49446864 36.2642658 62.26533401 41.86063092 57 47 C54.8046875 48.21875 54.8046875 48.21875 53 49 C53.51949219 50.03898437 54.03898437 51.07796875 54.57421875 52.1484375 C58.3828125 59.765625 62.19140625 67.3828125 66 75 C57.42 75 48.84 75 40 75 C35.4375 65.0625 35.4375 65.0625 34.04858398 61.92602539 C33.66001221 61.11641357 33.27144043 60.30680176 32.87109375 59.47265625 C32.48880615 58.64000244 32.10651855 57.80734863 31.71264648 56.94946289 C29.65031868 54.1757897 29.65031868 54.1757897 23 54 C23 60.93 23 67.86 23 75 C15.41 75 7.82 75 0 75 C0 50.25 0 25.5 0 0 Z M22 18 C22 23.94 22 29.88 22 36 C24.2275 36.04125 26.455 36.0825 28.75 36.125 C30.62945312 36.15980469 30.62945312 36.15980469 32.546875 36.1953125 C35.74805947 36.01425003 37.38925276 35.76978539 40 34 C42.3020949 30.77706714 42.47510654 27.88003676 42 24 C40.12757791 20.75926946 38.97965494 19.30322653 35.375 18.1875 C30.90506457 17.93917025 26.47704053 17.93949945 22 18 Z " fill="#57595D" transform="translate(405,349)"/>
<path d="M0 0 C0.79438477 0.45246094 1.58876953 0.90492188 2.40722656 1.37109375 C3.39754883 1.93441406 4.38787109 2.49773437 5.40820312 3.078125 C8.77432908 5.00962347 12.12436372 6.96636946 15.46972656 8.93359375 C17.1121936 9.88890991 17.1121936 9.88890991 18.7878418 10.86352539 C25.07826606 14.62531692 30.24786677 17.75791601 33.43847656 24.57421875 C34.80532876 30.54280667 34.50396314 35.97539484 31.40722656 41.37109375 C26.31622665 46.89545185 19.66588516 50.29854451 13.15722656 53.87109375 C12.18398437 54.41378906 11.21074219 54.95648438 10.20800781 55.515625 C8.2552436 56.60222288 6.29927987 57.68309162 4.34008789 58.75805664 C2.34940219 59.85290892 0.36502098 60.95928753 -1.61352539 62.07592773 C-2.57734131 62.61548096 -3.54115723 63.15503418 -4.53417969 63.7109375 C-5.39470947 64.1968335 -6.25523926 64.68272949 -7.1418457 65.18334961 C-12.4026312 67.73277898 -17.28399646 68.03337315 -22.84277344 66.30859375 C-28.18391455 63.98913406 -31.35299914 59.68294342 -33.59277344 54.37109375 C-33.86019897 52.15287781 -33.86019897 52.15287781 -33.88330078 49.71362305 C-33.89606049 48.79554367 -33.90882019 47.87746429 -33.92196655 46.93156433 C-33.9241922 45.94610123 -33.92641785 44.96063812 -33.92871094 43.9453125 C-33.93536774 42.92435989 -33.94202454 41.90340729 -33.94888306 40.85151672 C-33.95900328 38.69212646 -33.96370027 36.53270497 -33.96337891 34.37329102 C-33.96774371 31.08101374 -34.00404787 27.79008629 -34.04199219 24.49804688 C-34.04786224 22.39713999 -34.05183037 20.29622675 -34.05371094 18.1953125 C-34.06808197 17.21592209 -34.082453 16.23653168 -34.09725952 15.22746277 C-34.05630869 9.05457734 -33.20508052 5.41993454 -29.59277344 0.37109375 C-19.71334862 -9.0016939 -10.69335472 -5.99514177 0 0 Z " fill="#1E65FF" transform="translate(118.5927734375,410.62890625)"/>
<path d="M0 0 C0.91644287 0.00523682 1.83288574 0.01047363 2.77709961 0.01586914 C4.26113281 0.02070313 4.26113281 0.02070313 5.77514648 0.02563477 C6.81606445 0.03401367 7.85698242 0.04239258 8.92944336 0.05102539 C10.49662109 0.05779297 10.49662109 0.05779297 12.09545898 0.06469727 C14.68600996 0.07652627 17.27644895 0.0930085 19.86694336 0.11352539 C24.47559315 10.93170879 28.76617537 21.87724283 33.0871582 32.8125 C34.36270982 36.04031233 35.64008449 39.26739862 36.91772461 42.49438477 C39.2407884 48.36481904 41.55562387 54.23845891 43.86694336 60.11352539 C44.31191162 61.24120331 44.31191162 61.24120331 44.76586914 62.3916626 C45.50107757 64.2571707 46.23116841 66.12469364 46.96069336 67.99243164 C47.52820313 69.44178101 47.52820313 69.44178101 48.10717773 70.92041016 C48.86694336 73.11352539 48.86694336 73.11352539 48.86694336 75.11352539 C40.94694336 75.11352539 33.02694336 75.11352539 24.86694336 75.11352539 C23.54694336 72.14352539 22.22694336 69.17352539 20.86694336 66.11352539 C12.61694336 65.78352539 4.36694336 65.45352539 -4.13305664 65.11352539 C-4.46305664 66.76352539 -4.79305664 68.41352539 -5.13305664 70.11352539 C-5.79305664 71.76352539 -6.45305664 73.41352539 -7.13305664 75.11352539 C-15.05305664 75.11352539 -22.97305664 75.11352539 -31.13305664 75.11352539 C-29.16966627 68.56889084 -27.16035224 62.29696231 -24.65649414 55.97680664 C-24.32953049 55.14199265 -24.00256683 54.30717865 -23.66569519 53.44706726 C-22.61693721 50.77188104 -21.56265069 48.09891566 -20.50805664 45.42602539 C-19.7849739 43.58566616 -19.06223772 41.74517072 -18.33984375 39.90454102 C-16.92059758 36.28943582 -15.49940952 32.67510321 -14.0769043 29.0612793 C-12.41125976 24.82646093 -10.75871794 20.58679907 -9.11352539 16.34399414 C-8.69474121 15.26529053 -8.27595703 14.18658691 -7.84448242 13.07519531 C-7.09772101 11.15021386 -6.35251651 9.22462746 -5.60913086 7.29833984 C-2.82655602 0.15043477 -2.82655602 0.15043477 0 0 Z M7.86694336 28.11352539 C6.86117323 30.88238662 5.86214189 33.65336643 4.86694336 36.42602539 C4.58077148 37.21170898 4.29459961 37.99739258 3.99975586 38.80688477 C3.72905273 39.56420898 3.45834961 40.3215332 3.17944336 41.10180664 C2.92807617 41.79830322 2.67670898 42.4947998 2.41772461 43.21240234 C1.727808 45.26389339 1.727808 45.26389339 1.86694336 48.11352539 C6.48694336 48.11352539 11.10694336 48.11352539 15.86694336 48.11352539 C14.08703455 41.0828856 12.03938192 34.63554376 8.86694336 28.11352539 C8.53694336 28.11352539 8.20694336 28.11352539 7.86694336 28.11352539 Z " fill="#1E65FF" transform="translate(672.133056640625,428.886474609375)"/>
<path d="M0 0 C5.06599029 4.34227739 9.19681033 8.53750856 10.625 15.25 C10.625 17.23 10.625 19.21 10.625 21.25 C3.695 21.25 -3.235 21.25 -10.375 21.25 C-11.365 19.27 -12.355 17.29 -13.375 15.25 C-16.54524765 13.66487617 -19.92167028 13.82627856 -23.375 14.25 C-25.384245 15.58358994 -25.384245 15.58358994 -26.375 17.25 C-25.95877402 19.71955394 -25.95877402 19.71955394 -24.375 22.25 C-20.5243785 24.09829832 -16.67801011 25.16382567 -12.5703125 26.33203125 C4.6389538 31.32251578 4.6389538 31.32251578 10.0625 39.5625 C13.04965625 45.5899175 13.2609562 52.02013626 11.34765625 58.40625 C9.23043796 63.80801776 5.63267691 68.30184783 0.625 71.25 C-9.61982682 75.52580418 -22.88839553 76.15717116 -33.375 72.25 C-40.46833358 68.83230291 -45.48591163 64.2294342 -48.1875 56.6875 C-49.31487947 53.19324651 -49.375 51.13277486 -49.375 47.25 C-42.115 47.25 -34.855 47.25 -27.375 47.25 C-26.385 49.56 -25.395 51.87 -24.375 54.25 C-19.72410371 56.35606625 -16.29594675 56.45023091 -11.375 55.25 C-11.375 52.61 -11.375 49.97 -11.375 47.25 C-12.53 46.858125 -13.685 46.46625 -14.875 46.0625 C-15.6896875 45.78535156 -16.504375 45.50820313 -17.34375 45.22265625 C-19.61978506 44.49233057 -21.91541634 43.82262839 -24.21875 43.18359375 C-33.75068593 40.51139484 -41.73052002 37.77193936 -47.4375 29.125 C-49.07760224 22.34591073 -49.49203201 15.37768962 -47.125 8.75 C-46.5475 7.925 -45.97 7.1 -45.375 6.25 C-44.818125 5.38375 -44.26125 4.5175 -43.6875 3.625 C-32.66031864 -7.70021328 -13.09928932 -6.79222409 0 0 Z " fill="#57595D" transform="translate(322.375,351.75)"/>
<path d="M0 0 C22.44 0 44.88 0 68 0 C68 6.93 68 13.86 68 21 C60.41 21 52.82 21 45 21 C45 38.82 45 56.64 45 75 C37.74 75 30.48 75 23 75 C23 57.18 23 39.36 23 21 C15.41 21 7.82 21 0 21 C0 14.07 0 7.14 0 0 Z " fill="#57595D" transform="translate(334,349)"/>
<path d="M0 0 C7.26 0 14.52 0 22 0 C22 24.75 22 49.5 22 75 C14.74 75 7.48 75 0 75 C0 50.25 0 25.5 0 0 Z " fill="#1E65FF" transform="translate(541,429)"/>
<path d="M0 0 C7.26 0 14.52 0 22 0 C22 24.75 22 49.5 22 75 C14.74 75 7.48 75 0 75 C0 50.25 0 25.5 0 0 Z " fill="#1E65FF" transform="translate(430,429)"/>
<path d="M0 0 C7.26 0 14.52 0 22 0 C22 24.75 22 49.5 22 75 C14.74 75 7.48 75 0 75 C0 50.25 0 25.5 0 0 Z " fill="#57595D" transform="translate(703,349)"/>
</svg>
